<svg width="24" height="24" viewBox="0 0 24 24" fill="none" xmlns="http://www.w3.org/2000/svg">
  <path fill-rule="evenodd" clip-rule="evenodd" d="M24 0H0v24h24V0zM13.1586 3.9625l.0009-.0033c1.9807 1.0244 3.3571 4.5176 3.3571 8.5533 0 1.6599-.232 3.2527-.6642 4.6335-.0866.291-.5785.159-.4771-.1494.4165-1.3312.6412-2.8737.6412-4.4841 0-3.8-1.2631-7.07-2.9889-8.0561l.0023-.0087A1.1948 1.1948 0 0111.965 5.1c-.66 0-1.195-.535-1.195-1.195s.535-1.195 1.195-1.195 1.195.535 1.195 1.195c0 .0193-.0005.0385-.0014.0575zM8.2284 17.602c.8348 2.3306 2.2003 3.7656 3.7357 3.7656 1.1198 0 2.1559-.7634 2.9638-2.1073.1714-.2759-.2759-.5202-.4285-.2576-.7261 1.2078-1.618 1.8649-2.5353 1.8649-1.2755 0-2.4934-1.2799-3.2649-3.4341-.097-.2895-.587-.1367-.4708.1685zm10.0956-.1093c-1.7454.9427-5.1554.3863-8.3934-1.4832-1.417-.818-2.6572-1.802-3.6073-2.8462-.2016-.2233-.5872.0995-.3699.3365.9858 1.0833 2.2665 2.0995 3.7271 2.9427 3.4311 1.9809 7.0772 2.5537 8.986 1.4308l-.0227-.0253a1.19 1.19 0 00.7212.2421c.66 0 1.195-.535 1.195-1.195s-.535-1.195-1.195-1.195-1.195.535-1.195 1.195c0 .2256.0625.4367.1712.6167l-.0172-.0191zM4.4571 15.7032c-.073-1.9894 2.1381-4.7703 5.4808-6.7002 1.4313-.8264 2.9189-1.4119 4.3099-1.7099.2984-.0588.2122-.5622-.1048-.4889-1.4433.3093-2.9797.914-4.4551 1.7658-3.5496 2.0493-5.8992 5.0441-5.723 7.28a1.1946 1.1946 0 00-.6149 1.045c0 .66.535 1.195 1.195 1.195s1.195-.535 1.195-1.195S5.205 15.7 4.545 15.7c-.0296 0-.0589.0011-.0879.0032zm-.169-7.6308c.7683-1.3307 2.696-1.7954 5.134-1.3514.3148.0623.2095.5417-.0897.4919-2.2536-.4105-3.973.004-4.6112 1.1095-.4701.8142-.3286 1.9504.3981 3.2181.1578.2617-.2772.5357-.4337.2487-.8069-1.4073-.9707-2.7238-.3975-3.7168zm15.3446.0127c.7667 1.3279.2093 3.2246-1.3871 5.1105-.1932.2336-.5943-.0775-.3816-.3231 1.4754-1.743 1.9725-3.4344 1.3357-4.5374-.4623-.8007-1.4898-1.2452-2.9152-1.2637-.3034-.0083-.3147-.4995.0065-.5 1.585.0206 2.7776.5366 3.3417 1.5137zM12.83 12.515a.865.865 0 11-1.73 0 .865.865 0 011.73 0zm-.17-8.61a.695.695 0 11-1.39 0 .695.695 0 011.39 0zm6.705 13.685a.695.695 0 10-.0001-1.3901.695.695 0 00.0001 1.3901zM5.24 16.895a.695.695 0 11-1.39 0 .695.695 0 011.39 0z" fill="#fff"/>
</svg>
