<svg width="24" height="24" viewBox="0 0 24 24" fill="none" xmlns="http://www.w3.org/2000/svg"><path d="M0 24h24L23.953.047 0 0v24zM13.335 4.482c.906.15 1.541.477 2.204 1.14.495.504.607.681.757 1.195.663 2.297-.44 4.52-3.11 6.294-.85.57-2.082 1.224-2.727 1.438-.224.085-.28.16-.28.383 0 .364.383.803.822.962.579.196 1.989.122 2.96-.159 1.12-.326 2.951-1.288 4.146-2.166 1.242-.915 1.326-.925 2.12-.103.86.887.85 1-.27 2.083-2.354 2.278-5.52 3.688-8.312 3.707-1.54.01-2.587-.336-3.651-1.205-.925-.747-1.476-1.709-1.775-3.119-.046-.224-.102-.242-.915-.355-1.475-.186-2.484-.466-2.81-.756-.383-.336-.393-.822-.029-1.438.495-.84.897-.962 1.616-.486.448.3 1.223.467 1.756.393l.401-.066.056-.57c.178-1.512.84-3.324 1.681-4.594 1.354-2.036 3.203-2.923 5.36-2.578z" fill="#fff"/><path d="M12 7.535c-.474.242-1.153 1.005-1.47 1.646-.363.717-.558 1.387-.65 2.289l-.075.735.372-.056c1.079-.158 2.735-1.34 3.218-2.288.307-.605.354-1.442.103-1.935-.112-.214-.28-.428-.372-.484-.28-.14-.763-.102-1.126.093z" fill="#fff"/></svg>
