<svg width="24" height="24" viewBox="0 0 24 24" fill="none" xmlns="http://www.w3.org/2000/svg"><path fill-rule="evenodd" clip-rule="evenodd" d="M24 0H0v24h24V0zM6.333 6.322C7.467 5.175 8.48 4.575 9.88 4.202c.973-.267 3.187-.267 4.187-.014 1.453.387 2.453.974 3.6 2.134C19.333 7.975 20 9.602 20 11.988c0 2.387-.667 4-2.333 5.667-1.507 1.507-3.454 2.413-3.72 1.72-.04-.12-.08-.853-.08-1.627 0-1.16-.054-1.506-.254-1.84l-.24-.4.907-.24c1.84-.466 2.693-1.586 2.707-3.546.013-.867-.04-1.08-.36-1.64-.307-.52-.36-.734-.294-1.147.094-.533-.12-1.613-.32-1.613-.24 0-1.04.333-1.506.613-.4.253-.56.293-.934.187-.24-.08-.946-.134-1.573-.134s-1.333.054-1.573.134c-.374.106-.534.066-.934-.187-.466-.28-1.266-.613-1.506-.613-.2 0-.414 1.08-.32 1.613.066.413.013.627-.294 1.147-.32.56-.373.773-.36 1.653.014 1.933 1 3.2 2.814 3.573l.786.174-.306.613c-.174.333-.307.72-.307.853 0 .134-.093.24-.2.24a.205.205 0 01-.2-.2c0-.106-.053-.2-.133-.2-.067 0-.094.094-.054.2.054.134 0 .2-.2.2-.173 0-.28-.08-.28-.226 0-.2-.013-.2-.173.026-.213.267-.56.16-.44-.146.053-.147-.013-.174-.28-.107-.307.08-.333.053-.28-.187.053-.186.027-.253-.093-.213a.203.203 0 01-.187-.36c.133-.08.107-.12-.133-.12-.214 0-.28-.053-.24-.187.053-.133.013-.173-.12-.12-.107.04-.187-.013-.187-.146 0-.12-.107-.214-.267-.214-.36 0-.333.067.12.507.227.2.547.627.72.947.44.813 1.014 1.106 2 1.04l.76-.04v.76c0 1.013-.08 1.186-.56 1.186-.773 0-2.106-.8-3.24-1.933C4.667 15.988 4 14.375 4 11.988c0-2.386.667-4.013 2.333-5.666z" fill="#fff"/></svg>
