<svg width="24" height="24" viewBox="0 0 24 24" fill="none" xmlns="http://www.w3.org/2000/svg"><path fill-rule="evenodd" clip-rule="evenodd" d="M24 0H0v24h24V0zM5.917 7.92c1.196 0 1.94-.794 1.94-1.783-.021-1.013-.744-1.785-1.918-1.784C4.767 4.353 4 5.124 4 6.137c0 .989.743 1.783 1.895 1.782h.022zm1.715 11.726h-3.43V9.33h3.43v10.317zm5.327-8.855c.458-.705 1.272-1.704 3.092-1.704 2.255 0 3.949 1.473 3.948 4.645v5.915h-3.43v-5.52c0-1.387-.496-2.335-1.739-2.335-.944 0-1.51.642-1.758 1.256-.092.222-.113.526-.113.837v5.762h-3.43s.045-9.35 0-10.317h3.43v1.46zm0 0a.167.167 0 01-.022.033h.022v-.033z" fill="#fff"/></svg>
