<svg width="24" height="24" viewBox="0 0 24 24" fill="none" xmlns="http://www.w3.org/2000/svg"><path d="M24 24H0V0h24v24zM9.216 18.096c5.658 0 8.754-4.692 8.754-8.754 0-.132 0-.264-.006-.396A6.268 6.268 0 0019.5 7.35a6.236 6.236 0 01-1.77.486 3.095 3.095 0 001.356-1.704 6.12 6.12 0 01-1.956.744 3.07 3.07 0 00-2.244-.972 3.08 3.08 0 00-3 3.78 8.737 8.737 0 01-6.342-3.216 3.085 3.085 0 00.954 4.11 3.112 3.112 0 01-1.392-.384v.042a3.083 3.083 0 002.466 3.018 3 3 0 01-.81.108c-.198 0-.39-.018-.576-.054a3.077 3.077 0 002.874 2.136 6.17 6.17 0 01-3.822 1.32 5.92 5.92 0 01-.732-.042 8.752 8.752 0 004.71 1.374z" fill="#FAFAFA"/></svg>
