<svg width="24" height="24" viewBox="0 0 24 24" fill="none" xmlns="http://www.w3.org/2000/svg">
  <path fill-rule="evenodd" clip-rule="evenodd" d="M24 0H0v24h24V0zm-7.3467 6.9346c-1.2247-1.1258-2.8586-1.8135-4.6531-1.8135l-.0004-.0001c-2.4195 0-4.5472 1.25-5.7735 3.139.7814-.008 1.6204-.017 2.456-.0613.036-.002.0657.0308.0657.0686v.4118c0 .0378-.0295.0686-.0656.0686h-.7966c-.0889 0-.1263.0536-.0954.146l2.4985 7.359 1.52-4.5896-1.0105-2.7633c-.0366-.1002-.0802-.152-.2356-.152h-.6991c-.0361 0-.0657-.031-.0657-.0687v-.4117c0-.0378.0295-.0704.0657-.0688 1.301.058 2.6098.0575 3.9264 0 .0361-.0016.0657.0308.0657.0686v.4118c0 .0378-.0295.0686-.0657.0686h-.6952c-.1379 0-.1821.0638-.144.176l2.4591 7.2439.9029-2.7485c.6899-2.1.1346-3.0133-.3548-3.8182-.2849-.4686-.5475-.9004-.5289-1.5083.0248-.8171.6238-1.174 1.2241-1.1579zm2.2258 5.0652c0-1.1856-.3002-2.3014-.8288-3.2753h-.0001c.0378 1.0234-.2708 2.2943-.6031 3.2347l-2.1454 6.0765c2.1316-1.169 3.5774-3.4338 3.5774-6.0359zm-4.576 6.4832h.0001v.0003l-.0001-.0003zm0 0l-2.1844-5.973-2.1192 6.073a6.8833 6.8833 0 002.0007.2958 6.8588 6.8588 0 002.3029-.3958zm-9.1819-6.4829c0 2.7451 1.6091 5.1151 3.9354 6.2183l-3.3173-9.071c-.3967.8691-.618 1.8351-.618 2.8527zm14.403-.0003c0-4.1547-3.3695-7.5242-7.5242-7.5242s-7.5242 3.3695-7.5242 7.5242S7.8453 19.524 12 19.524s7.5242-3.3695 7.5242-7.5242zM20 12c0-4.4174-3.5826-8-8-8-4.4174 0-8 3.5826-8 8 0 4.4174 3.5826 8 8 8 4.4174 0 8-3.5826 8-8z" fill="#fff"/>
</svg>
